<?xml version="1.0" encoding="UTF-8"?>
<svg width="185" height="200" viewBox="0 0 185 200" xmlns="http://www.w3.org/2000/svg">
    <g fill-rule="nonzero" fill="none">
        <path d="M20.486 76.349H164a11.485 11.485 0 0 1 11.485 11.479v96.875a3.592 3.592 0 0 1-3.591 3.588H12.592a3.59 3.59 0 0 1-3.588-3.588V87.828c.001-6.34 5.142-11.48 11.482-11.48z" fill="#7DA3D7" />
        <path d="M23.822 16.176L137.519.197c7.576-1.066 11.9 2.191 12.967 9.77l17.575 125.067c1.064 7.578-2.19 11.903-9.772 12.97L44.592 163.978c-7.576 1.067-11.9-2.19-12.967-9.773L14.049 29.143c-1.063-7.579 2.194-11.903 9.773-12.97v.003z" fill="#E9F1FE" />
        <path d="M43.061 41.343l84.855-12.66a3.073 3.073 0 0 1 3.497 2.633 3.173 3.173 0 0 1-2.676 3.551l-84.86 12.664a3.073 3.073 0 0 1-3.497-2.634 3.173 3.173 0 0 1 2.678-3.554h.003zm5.74 38.218l86.297-12.888a3.07 3.07 0 0 1 3.494 2.633 3.173 3.173 0 0 1-2.676 3.555L49.619 85.749a3.07 3.07 0 0 1-3.497-2.633A3.173 3.173 0 0 1 48.8 79.56z" fill="#C6D7F8" />
        <path d="M47.628 118.273l92.076-12.94c2.06-.29 3.236.598 3.527 2.658.29 2.06-.597 3.237-2.658 3.528l-92.075 12.939c-2.06.29-3.237-.597-3.528-2.658-.29-2.06.597-3.236 2.658-3.527z" fill="#E6EAF3" />
        <path d="M173.158 93.57h-51.251c-1.974 0-3.914.508-5.634 1.476l-21.406 12.051a11.482 11.482 0 0 1-5.633 1.476H11.483A11.482 11.482 0 0 0 .043 121.05l5.94 68.236a11.482 11.482 0 0 0 11.439 10.485h149.515c6.008 0 11-4.633 11.449-10.624l6.22-83.243a11.482 11.482 0 0 0-11.454-12.333h.006z" fill="#BBD4F6" />
        <path d="M38.625 160.076h27.71c3.3 0 4.95 1.652 4.95 4.952 0 3.303-1.65 4.951-4.95 4.951h-27.71c-3.3 0-4.952-1.648-4.952-4.951 0-3.3 1.652-4.952 4.952-4.952z" fill="#FFF" />
    </g>
</svg>