<?xml version="1.0" standalone="no"?>
<svg class="icon"
     width="200"
     height="200"
     viewBox="0 0 1024 1024"
     xmlns="http://www.w3.org/2000/svg">
    <path d="M62.64 1013.76a58.565 58.565 0 0 1-54.47-54.43 12305.408 12305.408 0 0 1 0-896.708 58.565 58.565 0 0 1 54.47-54.47 12332.74 12332.74 0 0 1 896.709 0 58.565 58.565 0 0 1 54.43 54.47 12332.74 12332.74 0 0 1 0 896.708 58.565 58.565 0 0 1-54.47 54.47c-299.599 10.87-597.78 10.87-896.709 0z" fill="#0047BA" />
    <path d="M503.866 113.428c129.339 130.008 258.717 258.717 388.056 388.726-262.104-65.379-520.822-65.379-776.152 0l388.096-388.726zm193.378 388.056l-37.494 1.379c-187.865 6.813-309.09 34.028-225.359 92.554 100.785 70.144-70.105 111.025-102.794 120.517L503.866 889.58l388.056-388.765H697.205v.67z" fill="#F5F5F5" />
</svg>